{"accessors" : [{"bufferView" : 0, "byteOffset" : 0, "componentType" : 5123, "count" : 37497, "type" : "SCALAR", "max" : [37496], "min" : [0]}, {"bufferView" : 1, "byteOffset" : 0, "componentType" : 5126, "count" : 37497, "type" : "VEC3", "max" : [33.971317291259766, 19.155109405517578, 7.600049018859863], "min" : [-15.396012306213379, -34.6991081237793, 0], "name" : "POSITION"}, {"bufferView" : 1, "byteOffset" : 12, "componentType" : 5126, "count" : 37497, "type" : "VEC3", "max" : [1.0000044107437134, 1.0000044107437134, 1.0000044107437134], "min" : [-1.0000044107437134, -1.0000044107437134, -1.0000044107437134], "name" : "NORMAL"}], "asset" : {"generator" : "Aspose.3D 22.7", "version" : "2.0"}, "buffers" : [{"uri" : "data:application/octet-stream;base64,", "byteLength" : 974932}], "bufferViews" : [{"buffer" : 0, "byteOffset" : 0, "byteLength" : 74996, "target" : 34963}, {"buffer" : 0, "byteOffset" : 75000, "byteLength" : 899928, "byteStride" : 24, "target" : 34962}], "meshes" : [{"primitives" : [{"attributes" : {"POSITION" : 1, "NORMAL" : 2}, "indices" : 0, "mode" : 4}], "name" : "GearExperiment4-3"}], "nodes" : [{"mesh" : 0, "name" : "GearExperiment4-3"}], "scene" : 0, "scenes" : [{"nodes" : [0]}]}