{"accessors" : [{"bufferView" : 0, "byteOffset" : 0, "componentType" : 5123, "count" : 24738, "type" : "SCALAR", "max" : [24502], "min" : [0]}, {"bufferView" : 1, "byteOffset" : 0, "componentType" : 5126, "count" : 24503, "type" : "VEC3", "max" : [24, 23.809999465942383, 57.189998626708984], "min" : [-23.809999465942383, -23.809999465942383, 0], "name" : "POSITION"}, {"bufferView" : 1, "byteOffset" : 12, "componentType" : 5126, "count" : 24503, "type" : "VEC3", "max" : [1.0000044107437134, 0.9997685551643372, 1.0000044107437134], "min" : [-1.0000044107437134, -0.9984753727912903, -1.0000044107437134], "name" : "NORMAL"}], "asset" : {"generator" : "Aspose.3D 22.7", "version" : "2.0"}, "buffers" : [{"uri" : "data:application/octet-stream;base64,", "byteLength" : 643196}], "bufferViews" : [{"buffer" : 0, "byteOffset" : 0, "byteLength" : 49476, "target" : 34963}, {"buffer" : 0, "byteOffset" : 49480, "byteLength" : 593712, "byteStride" : 24, "target" : 34962}], "meshes" : [{"primitives" : [{"attributes" : {"POSITION" : 1, "NORMAL" : 2}, "indices" : 0, "mode" : 4}], "name" : ""}], "nodes" : [{"mesh" : 0, "name" : ""}], "scene" : 0, "scenes" : [{"nodes" : [0]}]}